<?xml version="1.0" encoding="iso-8859-1"?>
<!-- Generator: Adobe Illustrator 19.0.0, SVG Export Plug-In . SVG Version: 6.00 Build 0)  -->
<svg version="1.1" id="Layer_1" xmlns="http://www.w3.org/2000/svg" xmlns:xlink="http://www.w3.org/1999/xlink" x="0px" y="0px"
	 viewBox="0 0 511.907 511.907" style="enable-background:new 0 0 511.907 511.907;" xml:space="preserve">
<g>
	<g>
		<g>
			<path d="M335.366,290.551h0.555c50.112,0,109.76-17.963,111.104-103.083v-36.352c-11.264-3.669-23.253-5.525-35.691-4.885
				l-10.944,0.491c-40.512,1.515-78.336,12.416-111.637,30.101c-23.744-69.739-77.397-124.48-147.712-149.035
				c-20.864-8-43.029-8.32-63.723-1.941l7.744,3.904c90.837,40.597,123.733,112.683,89.323,197.312
				c-10.304,25.088-16.981,57.515-3.477,86.912c-5.995,17.835-10.069,36.416-11.477,55.68
				c-40.704-39.701-50.005-96.704-24.533-158.72c25.941-63.851,3.669-110.549-68.16-142.635L34.8,52.215
				c-8.491,9.28-15.125,20.288-19.477,32.555l-3.861,10.923C-27.962,219.149,37.595,358.455,157.83,406.306
				c0.725,0.299,1.536,0.384,2.283,0.64c2.517,17.749,9.877,34.539,21.291,48.427v-8.704
				C186.608,345.677,241.286,290.615,335.366,290.551z"/>
			<path d="M489.699,180.094v7.723c-1.451,91.435-58.923,145.323-154.368,145.408c-70.869,0.043-107.307,37.525-111.275,114.56
				v37.333c9.792,3.349,20.053,5.397,30.699,5.397c1.451,0,2.923-0.043,4.373-0.107l11.115-0.491
				c0.213-0.021,0.405-0.021,0.619-0.043c131.819-9.813,239.936-121.771,241.045-249.771
				C511.886,217.598,503.801,196.84,489.699,180.094z"/>
		</g>
	</g>
</g>
<g>
</g>
<g>
</g>
<g>
</g>
<g>
</g>
<g>
</g>
<g>
</g>
<g>
</g>
<g>
</g>
<g>
</g>
<g>
</g>
<g>
</g>
<g>
</g>
<g>
</g>
<g>
</g>
<g>
</g>
</svg>
